Coordinates
version=1
nRows=14
nColumns=40
inDegrees=yes

Units are S.I. units (second, meters, Newtons, ...)
If the header above contains a line with 'inDegrees', this indicates whether rotational values are in degrees (yes) or radians (no).

endheader
time	pelvis_tilt	pelvis_list	pelvis_rotation	pelvis_tx	pelvis_ty	pelvis_tz	hip_flexion_r	hip_adduction_r	hip_rotation_r	knee_angle_r	knee_angle_r_beta	ankle_angle_r	subtalar_angle_r	mtp_angle_r	hip_flexion_l	hip_adduction_l	hip_rotation_l	knee_angle_l	knee_angle_l_beta	ankle_angle_l	subtalar_angle_l	mtp_angle_l	lumbar_extension	lumbar_bending	lumbar_rotation	arm_flex_r	arm_add_r	arm_rot_r	elbow_flex_r	pro_sup_r	wrist_flex_r	wrist_dev_r	arm_flex_l	arm_add_l	arm_rot_l	elbow_flex_l	pro_sup_l	wrist_flex_l	wrist_dev_l
      2.80833300	      0.51676197	     -2.47172914	     -0.21265059	      0.96121955	      0.96528762	     -0.50540250	     26.14508220	      3.06633129	      1.74889141	     17.70281499	      0.30897241	     -3.19609694	      0.00000000	      0.00000000	    -17.24025860	     -1.92336421	      0.75678968	     20.07846411	      0.35043531	      9.00460110	      0.00000000	      0.00000000	     -9.65316138	      4.92789836	     -3.29207532	    -19.80906462	     -2.03521024	    -19.08718726	     35.76945009	     64.97282997	      0.00000000	      0.00000000	     -5.93495428	     -8.06479771	     -4.79927548	     71.06474471	     63.56569945	      0.00000000	      0.00000000
      2.81666700	      0.89122864	     -2.50572587	     -0.16658128	      0.96315858	      0.96623753	     -0.50460578	     25.54217628	      3.14903846	      1.81356042	     18.74805491	      0.32721529	     -2.83143348	      0.00000000	      0.00000000	    -16.87919737	     -2.14132224	      0.48083502	     22.46831612	      0.39214609	      7.05360253	      0.00000000	      0.00000000	     -9.92084759	      5.04474296	     -3.06016126	    -19.44266400	     -2.08471484	    -18.95887560	     35.84703045	     64.95222570	      0.00000000	      0.00000000	     -6.18398772	     -7.68040587	     -4.81334477	     69.80612374	     63.66629530	      0.00000000	      0.00000000
      2.82500000	      0.66588500	     -2.74425507	     -0.09863687	      0.96465893	      0.96631603	     -0.50367630	     25.78186406	      3.46624868	      1.94228900	     20.15304670	      0.35173702	     -2.05988152	      0.00000000	      0.00000000	    -15.20133346	     -2.68700278	      0.02522413	     26.09943523	      0.45552108	      5.65524842	      0.00000000	      0.00000000	     -9.48596286	      5.41382877	     -2.75530845	    -19.23435466	     -2.18862938	    -18.69253706	     36.08850092	     64.78568713	      0.00000000	      0.00000000	     -6.40429571	     -7.35511325	     -4.57244909	     68.28282822	     64.10636167	      0.00000000	      0.00000000
      2.83333300	      0.67606468	     -2.95187003	     -0.06611644	      0.96599068	      0.96693524	     -0.50268457	     25.67102425	      3.80179225	      2.17392794	     21.40708431	      0.37362410	     -1.06890051	      0.00000000	      0.00000000	    -13.75395203	     -3.16637000	     -0.18151270	     29.61837715	      0.51693820	      3.87815861	      0.00000000	      0.00000000	     -9.37996546	      5.71722445	     -2.45141663	    -18.85943194	     -2.29938075	    -18.38256474	     36.29435841	     64.51037899	      0.00000000	      0.00000000	     -6.62245979	     -6.99783844	     -4.51743225	     66.82117645	     64.65508973	      0.00000000	      0.00000000
      2.84166700	      1.25420970	     -3.09825870	     -0.07115550	      0.96720873	      0.96855391	     -0.50165595	     24.75675955	      4.13052480	      2.58925074	     22.35408334	      0.39015236	      0.04016655	      0.00000000	      0.00000000	    -13.04128168	     -3.50573371	     -0.14845277	     32.74861490	      0.57157116	      1.72941859	      0.00000000	      0.00000000	    -10.02040424	      5.91067945	     -2.10761157	    -18.26605695	     -2.38763213	    -18.16266844	     36.40107970	     64.44503226	      0.00000000	      0.00000000	     -6.76943664	     -6.64381292	     -4.62423889	     65.53543304	     64.77885170	      0.00000000	      0.00000000
      2.85000000	      0.78481590	     -3.69301340	      0.03405209	      0.96820274	      0.96857532	     -0.50075358	     25.05137128	      4.83281854	      2.53230707	     23.36608776	      0.40781516	      1.20627972	      0.00000000	      0.00000000	    -10.53378149	     -4.48418798	     -0.25212747	     37.10332694	      0.64757522	      0.08041790	      0.00000000	      0.00000000	     -9.35372077	      6.66889562	     -1.80668314	    -17.99265253	     -2.64056481	    -17.73769598	     36.83596030	     64.23397717	      0.00000000	      0.00000000	     -7.03000902	     -6.22287584	     -4.48501748	     63.89419672	     65.31227531	      0.00000000	      0.00000000
      2.85833300	      1.41026341	     -3.74323608	     -0.01971026	      0.96891575	      0.97036903	     -0.49978015	     23.94278680	      5.07049898	      3.02757309	     24.02337613	      0.41928701	      2.12099279	      0.00000000	      0.00000000	     -9.64880534	     -4.61309784	      0.10126053	     40.40602515	      0.70521818	     -1.70498919	      0.00000000	      0.00000000	    -10.12542965	      6.73686595	     -1.42258945	    -17.24471461	     -2.70950478	    -17.53589681	     37.01890274	     64.18599081	      0.00000000	      0.00000000	     -7.15770229	     -5.91060576	     -4.58401371	     62.71008104	     65.44576884	      0.00000000	      0.00000000
      2.86666700	      0.65680375	     -4.31115138	      0.19018559	      0.96948432	      0.97002457	     -0.49905943	     24.41991581	      5.64890042	      2.63970834	     24.74704015	      0.43191733	      3.14429713	      0.00000000	      0.00000000	     -6.55221101	     -5.49575147	      0.48848295	     44.87861993	      0.78327968	     -3.59946703	      0.00000000	      0.00000000	     -9.14278685	      7.42205515	     -1.26127430	    -16.99066449	     -3.02988441	    -16.84557378	     37.63040182	     62.62022135	      0.00000000	      0.00000000	     -7.45148820	     -5.43514791	     -4.77145438	     60.89048958	     69.60238437	      0.00000000	      0.00000000
      2.87500000	      0.93722302	     -4.63835306	      0.28530986	      0.97006258	      0.97136194	     -0.49828003	     23.43337107	      6.06280458	      2.62118591	     24.87836674	      0.43420941	      4.25372850	      0.00000000	      0.00000000	     -4.98732856	     -5.94115171	      0.94759485	     48.34869212	      0.84384387	     -5.93880891	      0.00000000	      0.00000000	     -9.49044359	      7.80820398	     -1.00110349	    -16.39841478	     -3.20369518	    -16.55507475	     38.14472539	     62.64421458	      0.00000000	      0.00000000	     -7.67186941	     -5.07783416	     -4.85803174	     59.57119660	     69.63289170	      0.00000000	      0.00000000
      2.88333300	      0.71457876	     -4.93344336	      0.47643034	      0.97021037	      0.97186426	     -0.49750388	     23.11988326	      6.37766927	      2.41217094	     25.17351258	      0.43936068	      4.88179864	      0.00000000	      0.00000000	     -2.61200914	     -6.32745877	      1.58294092	     52.06994016	      0.90879190	     -7.69397893	      0.00000000	      0.00000000	     -9.20175546	      8.14906388	     -0.83448990	    -15.96818035	     -3.37294283	    -16.09184080	     38.85694940	     62.59470723	      0.00000000	      0.00000000	     -7.87297838	     -4.85539614	     -4.81506599	     58.03612895	     69.88844829	      0.00000000	      0.00000000
      2.89166700	      0.81668141	     -5.12832407	      0.57090397	      0.97029318	      0.97301301	     -0.49682328	     22.30011054	      6.61726284	      2.26806785	     25.21484654	      0.44008209	      5.83023704	      0.00000000	      0.00000000	     -0.77918826	     -6.52779504	      2.08738669	     55.20541965	      0.96351634	     -9.72439331	      0.00000000	      0.00000000	     -9.36391787	      8.37050502	     -0.63212027	    -15.32345367	     -3.55558611	    -15.76211589	     39.51191283	     62.55170715	      0.00000000	      0.00000000	     -8.09041512	     -4.55382880	     -4.84853639	     56.69888697	     70.03451614	      0.00000000	      0.00000000
      2.90000000	      0.74403201	     -5.31917323	      0.68229294	      0.97023863	      0.97392895	     -0.49607772	     21.65966606	      6.84775214	      2.10161388	     25.21469118	      0.44007938	      6.67778281	      0.00000000	      0.00000000	      1.26738007	     -6.72688544	      2.56820169	     58.20378033	      1.01584760	    -10.90029628	      0.00000000	      0.00000000	     -9.29269838	      8.57272987	     -0.43808120	    -14.76974260	     -3.72121007	    -15.37688152	     40.24120735	     62.49329715	      0.00000000	      0.00000000	     -8.29632041	     -4.33600005	     -4.87921065	     55.25841220	     70.18861084	      0.00000000	      0.00000000
      2.90833300	      1.09553436	     -5.11569265	      0.51101551	      0.97006146	      0.97565019	     -0.49511025	     20.54667650	      6.74118608	      2.15968082	     25.22785780	      0.44030918	      7.09260911	      0.00000000	      0.00000000	      2.53697089	     -6.50533174	      2.55242199	     60.55113282	      1.05681663	    -10.89492459	      0.00000000	      0.00000000	     -9.82216308	      8.27011368	     -0.09013050	    -13.89162203	     -3.77727113	    -15.21530258	     40.67538825	     62.48407516	      0.00000000	      0.00000000	     -8.63378957	     -4.24243518	     -4.88001167	     54.34448644	     70.21685553	      0.00000000	      0.00000000
      2.91666700	      0.27564208	     -5.59226958	      0.73851984	      0.96957537	      0.97555186	     -0.49453709	     20.74060541	      7.20605875	      1.83733802	     25.16650342	      0.43923835	      7.78976962	      0.00000000	      0.00000000	      5.58765892	     -7.00773539	      3.20017988	     63.48484388	      1.10801955	     -9.78816874	      0.00000000	      0.00000000	     -8.80879257	      8.81358490	      0.10809350	    -13.70977227	     -4.07784261	    -14.61023575	     41.84627536	     62.26881622	      0.00000000	      0.00000000	     -8.69473822	     -3.94358539	     -4.79068652	     52.26609345	     70.52048638	      0.00000000	      0.00000000
